<mxfile host="app.diagrams.net" modified="2020-12-20T11:09:01.056Z" agent="5.0 (X11; Linux x86_64) AppleWebKit/537.36 (KHTML, like Gecko) Chrome/87.0.4280.88 Safari/537.36" etag="HFtbuj6SoW8UcA6sRvBI" version="14.1.1" type="github">
  <diagram id="nAb394NGYrRfFZ5302sk" name="Page-1">
    <mxGraphModel dx="1350" dy="769" grid="1" gridSize="10" guides="1" tooltips="1" connect="1" arrows="1" fold="1" page="1" pageScale="1" pageWidth="827" pageHeight="1169" math="0" shadow="0">
      <root>
        <mxCell id="0" />
        <mxCell id="1" parent="0" />
        <mxCell id="-UQFYYLVcxtBfuHLU2cC-1" value="" style="endArrow=classic;html=1;" parent="1" edge="1">
          <mxGeometry width="50" height="50" relative="1" as="geometry">
            <mxPoint x="50" y="230" as="sourcePoint" />
            <mxPoint x="170" y="220" as="targetPoint" />
            <Array as="points">
              <mxPoint x="80" y="210" />
              <mxPoint x="120" y="210" />
              <mxPoint x="150" y="210" />
            </Array>
          </mxGeometry>
        </mxCell>
        <mxCell id="-UQFYYLVcxtBfuHLU2cC-3" value="Datos alumno" style="text;html=1;align=center;verticalAlign=middle;resizable=0;points=[];autosize=1;" parent="1" vertex="1">
          <mxGeometry x="70" y="210" width="90" height="20" as="geometry" />
        </mxCell>
        <mxCell id="-UQFYYLVcxtBfuHLU2cC-4" value="Crear alumno&lt;br&gt;1" style="ellipse;whiteSpace=wrap;html=1;aspect=fixed;" parent="1" vertex="1">
          <mxGeometry x="160" y="210" width="80" height="80" as="geometry" />
        </mxCell>
        <mxCell id="-UQFYYLVcxtBfuHLU2cC-5" value="" style="endArrow=classic;html=1;" parent="1" source="-UQFYYLVcxtBfuHLU2cC-4" edge="1">
          <mxGeometry width="50" height="50" relative="1" as="geometry">
            <mxPoint x="290" y="290" as="sourcePoint" />
            <mxPoint x="230" y="140" as="targetPoint" />
            <Array as="points">
              <mxPoint x="170" y="170" />
              <mxPoint x="190" y="140" />
              <mxPoint x="230" y="140" />
            </Array>
          </mxGeometry>
        </mxCell>
        <mxCell id="-UQFYYLVcxtBfuHLU2cC-6" value="Consultar alumnos por dirección&lt;br&gt;9" style="ellipse;whiteSpace=wrap;html=1;aspect=fixed;" parent="1" vertex="1">
          <mxGeometry x="450" y="360" width="80" height="80" as="geometry" />
        </mxCell>
        <mxCell id="-UQFYYLVcxtBfuHLU2cC-7" value="" style="endArrow=classic;html=1;exitX=1;exitY=0;exitDx=0;exitDy=0;" parent="1" source="-UQFYYLVcxtBfuHLU2cC-6" edge="1">
          <mxGeometry width="50" height="50" relative="1" as="geometry">
            <mxPoint x="400" y="340" as="sourcePoint" />
            <mxPoint x="640" y="340" as="targetPoint" />
            <Array as="points">
              <mxPoint x="540" y="360" />
              <mxPoint x="570" y="350" />
              <mxPoint x="600" y="340" />
            </Array>
          </mxGeometry>
        </mxCell>
        <mxCell id="-UQFYYLVcxtBfuHLU2cC-8" value="Lista de alumnos" style="text;html=1;strokeColor=none;fillColor=none;align=center;verticalAlign=middle;whiteSpace=wrap;rounded=0;" parent="1" vertex="1">
          <mxGeometry x="560" y="360" width="40" height="20" as="geometry" />
        </mxCell>
        <mxCell id="-UQFYYLVcxtBfuHLU2cC-9" value="" style="endArrow=classic;html=1;exitX=-0.004;exitY=0.649;exitDx=0;exitDy=0;exitPerimeter=0;" parent="1" source="-UQFYYLVcxtBfuHLU2cC-6" target="-UQFYYLVcxtBfuHLU2cC-10" edge="1">
          <mxGeometry width="50" height="50" relative="1" as="geometry">
            <mxPoint x="400" y="320" as="sourcePoint" />
            <mxPoint x="360" y="412" as="targetPoint" />
            <Array as="points">
              <mxPoint x="410" y="420" />
            </Array>
          </mxGeometry>
        </mxCell>
        <mxCell id="-UQFYYLVcxtBfuHLU2cC-10" value="Almacén de alumnos" style="rounded=1;whiteSpace=wrap;html=1;" parent="1" vertex="1">
          <mxGeometry x="280" y="370" width="90" height="30" as="geometry" />
        </mxCell>
        <mxCell id="-UQFYYLVcxtBfuHLU2cC-12" value="" style="endArrow=classic;html=1;entryX=0.333;entryY=0;entryDx=0;entryDy=0;entryPerimeter=0;" parent="1" source="-UQFYYLVcxtBfuHLU2cC-4" target="-UQFYYLVcxtBfuHLU2cC-10" edge="1">
          <mxGeometry width="50" height="50" relative="1" as="geometry">
            <mxPoint x="390" y="360" as="sourcePoint" />
            <mxPoint x="440" y="310" as="targetPoint" />
            <Array as="points">
              <mxPoint x="260" y="290" />
              <mxPoint x="280" y="310" />
              <mxPoint x="300" y="340" />
            </Array>
          </mxGeometry>
        </mxCell>
        <mxCell id="-UQFYYLVcxtBfuHLU2cC-13" value="Respuesta" style="text;html=1;strokeColor=none;fillColor=none;align=center;verticalAlign=middle;whiteSpace=wrap;rounded=0;" parent="1" vertex="1">
          <mxGeometry x="80" y="120" width="240" height="20" as="geometry" />
        </mxCell>
        <mxCell id="-UQFYYLVcxtBfuHLU2cC-15" value="Actualizar alumno&lt;br&gt;3" style="ellipse;whiteSpace=wrap;html=1;aspect=fixed;" parent="1" vertex="1">
          <mxGeometry x="510" y="210" width="80" height="80" as="geometry" />
        </mxCell>
        <mxCell id="-UQFYYLVcxtBfuHLU2cC-16" value="" style="endArrow=classic;html=1;" parent="1" edge="1">
          <mxGeometry width="50" height="50" relative="1" as="geometry">
            <mxPoint x="780" y="236" as="sourcePoint" />
            <mxPoint x="590" y="236.36363636363637" as="targetPoint" />
            <Array as="points">
              <mxPoint x="720" y="220" />
              <mxPoint x="680" y="220" />
              <mxPoint x="630" y="220" />
            </Array>
          </mxGeometry>
        </mxCell>
        <mxCell id="-UQFYYLVcxtBfuHLU2cC-19" value="Legajo y &lt;br&gt;datos del alumno a actualizar" style="text;html=1;align=center;verticalAlign=middle;resizable=0;points=[];autosize=1;" parent="1" vertex="1">
          <mxGeometry x="600" y="225" width="170" height="30" as="geometry" />
        </mxCell>
        <mxCell id="-UQFYYLVcxtBfuHLU2cC-20" value="Nuevo alumno" style="text;html=1;align=center;verticalAlign=middle;resizable=0;points=[];autosize=1;" parent="1" vertex="1">
          <mxGeometry x="200" y="320" width="90" height="20" as="geometry" />
        </mxCell>
        <mxCell id="-UQFYYLVcxtBfuHLU2cC-21" value="" style="endArrow=classic;html=1;exitX=0.074;exitY=0.75;exitDx=0;exitDy=0;exitPerimeter=0;entryX=0.75;entryY=0;entryDx=0;entryDy=0;" parent="1" source="-UQFYYLVcxtBfuHLU2cC-15" target="-UQFYYLVcxtBfuHLU2cC-10" edge="1">
          <mxGeometry width="50" height="50" relative="1" as="geometry">
            <mxPoint x="390" y="290" as="sourcePoint" />
            <mxPoint x="440" y="240" as="targetPoint" />
            <Array as="points">
              <mxPoint x="470" y="280" />
              <mxPoint x="420" y="310" />
              <mxPoint x="380" y="340" />
            </Array>
          </mxGeometry>
        </mxCell>
        <mxCell id="-UQFYYLVcxtBfuHLU2cC-22" value="Alumno modificado" style="text;html=1;align=center;verticalAlign=middle;resizable=0;points=[];autosize=1;" parent="1" vertex="1">
          <mxGeometry x="440" y="290" width="120" height="20" as="geometry" />
        </mxCell>
        <mxCell id="-UQFYYLVcxtBfuHLU2cC-23" value="" style="endArrow=classic;html=1;exitX=0.608;exitY=-0.017;exitDx=0;exitDy=0;exitPerimeter=0;" parent="1" source="-UQFYYLVcxtBfuHLU2cC-15" edge="1">
          <mxGeometry width="50" height="50" relative="1" as="geometry">
            <mxPoint x="390" y="290" as="sourcePoint" />
            <mxPoint x="770" y="180" as="targetPoint" />
            <Array as="points">
              <mxPoint x="610" y="180" />
              <mxPoint x="660" y="170" />
            </Array>
          </mxGeometry>
        </mxCell>
        <mxCell id="-UQFYYLVcxtBfuHLU2cC-24" value="Respuesta" style="text;html=1;align=center;verticalAlign=middle;resizable=0;points=[];autosize=1;" parent="1" vertex="1">
          <mxGeometry x="620" y="170" width="70" height="20" as="geometry" />
        </mxCell>
        <mxCell id="F8ln3iv8hiwhFFqBrL_G-1" value="" style="endArrow=classic;html=1;entryX=1;entryY=0.713;entryDx=0;entryDy=0;entryPerimeter=0;" edge="1" parent="1" target="-UQFYYLVcxtBfuHLU2cC-6">
          <mxGeometry width="50" height="50" relative="1" as="geometry">
            <mxPoint x="640" y="400" as="sourcePoint" />
            <mxPoint x="440" y="360" as="targetPoint" />
          </mxGeometry>
        </mxCell>
        <mxCell id="F8ln3iv8hiwhFFqBrL_G-2" value="Dirección" style="text;html=1;align=center;verticalAlign=middle;resizable=0;points=[];autosize=1;" vertex="1" parent="1">
          <mxGeometry x="560" y="410" width="70" height="20" as="geometry" />
        </mxCell>
        <mxCell id="F8ln3iv8hiwhFFqBrL_G-3" value="Consultar alumnos&lt;br&gt;2" style="ellipse;whiteSpace=wrap;html=1;aspect=fixed;" vertex="1" parent="1">
          <mxGeometry x="90" y="345" width="80" height="80" as="geometry" />
        </mxCell>
        <mxCell id="F8ln3iv8hiwhFFqBrL_G-4" value="" style="endArrow=classic;html=1;entryX=0;entryY=0.563;entryDx=0;entryDy=0;entryPerimeter=0;" edge="1" parent="1" target="F8ln3iv8hiwhFFqBrL_G-3">
          <mxGeometry width="50" height="50" relative="1" as="geometry">
            <mxPoint x="10" y="400" as="sourcePoint" />
            <mxPoint x="80" y="390" as="targetPoint" />
          </mxGeometry>
        </mxCell>
        <mxCell id="F8ln3iv8hiwhFFqBrL_G-8" value="Solicitud" style="text;html=1;align=center;verticalAlign=middle;resizable=0;points=[];autosize=1;" vertex="1" parent="1">
          <mxGeometry x="10" y="400" width="60" height="20" as="geometry" />
        </mxCell>
        <mxCell id="F8ln3iv8hiwhFFqBrL_G-9" value="" style="endArrow=classic;html=1;exitX=1;exitY=0.5;exitDx=0;exitDy=0;entryX=0;entryY=0.5;entryDx=0;entryDy=0;" edge="1" parent="1" source="F8ln3iv8hiwhFFqBrL_G-3" target="-UQFYYLVcxtBfuHLU2cC-10">
          <mxGeometry width="50" height="50" relative="1" as="geometry">
            <mxPoint x="390" y="400" as="sourcePoint" />
            <mxPoint x="440" y="350" as="targetPoint" />
          </mxGeometry>
        </mxCell>
        <mxCell id="F8ln3iv8hiwhFFqBrL_G-10" value="" style="endArrow=classic;html=1;exitX=0.5;exitY=1;exitDx=0;exitDy=0;" edge="1" parent="1" source="F8ln3iv8hiwhFFqBrL_G-3">
          <mxGeometry width="50" height="50" relative="1" as="geometry">
            <mxPoint x="390" y="400" as="sourcePoint" />
            <mxPoint x="70" y="500" as="targetPoint" />
            <Array as="points">
              <mxPoint x="140" y="440" />
              <mxPoint x="140" y="450" />
              <mxPoint x="130" y="480" />
              <mxPoint x="110" y="490" />
            </Array>
          </mxGeometry>
        </mxCell>
        <mxCell id="F8ln3iv8hiwhFFqBrL_G-12" value="Alumnos" style="text;html=1;align=center;verticalAlign=middle;resizable=0;points=[];autosize=1;" vertex="1" parent="1">
          <mxGeometry x="70" y="450" width="60" height="20" as="geometry" />
        </mxCell>
        <mxCell id="F8ln3iv8hiwhFFqBrL_G-13" value="Consultar alumno&lt;br&gt;3" style="ellipse;whiteSpace=wrap;html=1;aspect=fixed;" vertex="1" parent="1">
          <mxGeometry x="150" y="480" width="80" height="80" as="geometry" />
        </mxCell>
        <mxCell id="F8ln3iv8hiwhFFqBrL_G-14" value="" style="endArrow=classic;html=1;" edge="1" parent="1" target="F8ln3iv8hiwhFFqBrL_G-13">
          <mxGeometry width="50" height="50" relative="1" as="geometry">
            <mxPoint x="40" y="550" as="sourcePoint" />
            <mxPoint x="150" y="535" as="targetPoint" />
            <Array as="points">
              <mxPoint x="70" y="560" />
              <mxPoint x="110" y="560" />
              <mxPoint x="130" y="550" />
            </Array>
          </mxGeometry>
        </mxCell>
        <mxCell id="F8ln3iv8hiwhFFqBrL_G-15" value="Legajo del alumno" style="text;html=1;align=center;verticalAlign=middle;resizable=0;points=[];autosize=1;" vertex="1" parent="1">
          <mxGeometry x="40" y="560" width="110" height="20" as="geometry" />
        </mxCell>
        <mxCell id="F8ln3iv8hiwhFFqBrL_G-16" value="" style="endArrow=classic;html=1;" edge="1" parent="1" source="F8ln3iv8hiwhFFqBrL_G-13">
          <mxGeometry width="50" height="50" relative="1" as="geometry">
            <mxPoint x="200" y="620" as="sourcePoint" />
            <mxPoint x="120" y="630" as="targetPoint" />
            <Array as="points">
              <mxPoint x="180" y="580" />
              <mxPoint x="169" y="600" />
              <mxPoint x="150" y="620" />
            </Array>
          </mxGeometry>
        </mxCell>
        <mxCell id="F8ln3iv8hiwhFFqBrL_G-17" value="Datos del alumno" style="text;html=1;align=center;verticalAlign=middle;resizable=0;points=[];autosize=1;" vertex="1" parent="1">
          <mxGeometry x="170" y="585" width="110" height="20" as="geometry" />
        </mxCell>
        <mxCell id="F8ln3iv8hiwhFFqBrL_G-18" value="" style="endArrow=classic;html=1;entryX=0.156;entryY=1;entryDx=0;entryDy=0;entryPerimeter=0;" edge="1" parent="1" source="F8ln3iv8hiwhFFqBrL_G-13" target="-UQFYYLVcxtBfuHLU2cC-10">
          <mxGeometry width="50" height="50" relative="1" as="geometry">
            <mxPoint x="220" y="480" as="sourcePoint" />
            <mxPoint x="270" y="430" as="targetPoint" />
          </mxGeometry>
        </mxCell>
      </root>
    </mxGraphModel>
  </diagram>
</mxfile>
